# xmcd CD database file
#
# Track frame offsets:
#	150
#	19964
#	42512
#	63242
#	84285
#	102462
#	122669
#	147576
#	171647
#	197038
#	215556
#	239528
#	260568
#	282049
#	296511
#	317015
#
# Disc length: 4544 seconds
#
# Revision: 1
# Processed by: cddbd v1.5.2PL0 Copyright (c) Steve Scherf et al.
# Submitted via: CDex 1.70beta3
#
DISCID=fb11be10
DTITLE=オムニバス - クライマックス 80's BLUE　DISC1
DYEAR=2007
DGENRE=J-Pop
TTITLE0=My Revolution
TTITLE1=恋におちて-Fall in love-
TTITLE2=SWEET MEMORIE
TTITLE3=夢をあきらめないで
TTITLE4=想い出がいっぱい
TTITLE5=輝きながら…
TTITLE6=Song for U.S.A.
TTITLE7=SOMEDAY
TTITLE8=LOVE SONG
TTITLE9=ワインレッドの心
TTITLE10=瞳がほほえむから
TTITLE11=そして僕は途方に暮れる (1992"naive" version)
TTITLE12=ロンリー・チャップリン
TTITLE13=スローなブギにしてくれ (I want you)
TTITLE14=シャイニン・オン 君が哀しい
TTITLE15=Remember Me
EXTD=YEAR: 2007
EXTT0=
EXTT1=
EXTT2=
EXTT3=
EXTT4=
EXTT5=
EXTT6=
EXTT7=
EXTT8=
EXTT9=
EXTT10=
EXTT11=
EXTT12=
EXTT13=
EXTT14=
EXTT15=
PLAYORDER=
